HIERARCHY
ROOT Pelvis
{
	OFFSET 0.000000 0.000000 0.000000
	CHANNELS 6 Xposition Yposition Zposition Xrotation Yrotation Zrotation
	JOINT LeftUpLeg_virtual
	{
		OFFSET 0.000000 0.000000 0.000000
		CHANNELS 3 Xrotation Yrotation Zrotation
		JOINT LeftUpLeg
		{
			OFFSET 8.479700 -4.795502 -0.379100
			CHANNELS 3 Xrotation Yrotation Zrotation
			JOINT LeftLeg
			{
				OFFSET 0.024144 -32.555107 0.112900
				CHANNELS 3 Xrotation Yrotation Zrotation
				JOINT LeftFoot
				{
					OFFSET -0.024144 -32.638630 -3.012600
					CHANNELS 3 Xrotation Yrotation Zrotation
					JOINT LeftToeBase
					{
						OFFSET 0.970200 -13.225400 11.864200
						CHANNELS 3 Xrotation Yrotation Zrotation
						End Site
						{
							OFFSET 0 0 0
						}
					}
				}
			}
		}
	}
	JOINT RightUpLeg_virtual
	{
		OFFSET 0.000000 0.000000 0.000000
		CHANNELS 3 Xrotation Yrotation Zrotation
		JOINT RightUpLeg
		{
			OFFSET -8.479700 -4.795502 -0.379100
			CHANNELS 3 Xrotation Yrotation Zrotation
			JOINT RightLeg
			{
				OFFSET -0.023144 -32.555092 0.112900
				CHANNELS 3 Xrotation Yrotation Zrotation
				JOINT RightFoot
				{
					OFFSET 0.023144 -32.638641 -3.012700
					CHANNELS 3 Xrotation Yrotation Zrotation
					JOINT RightToeBase
					{
						OFFSET -0.970200 -13.225400 11.864200
						CHANNELS 3 Xrotation Yrotation Zrotation
						End Site
						{
							OFFSET 0 0 0
						}
					}
				}
			}
		}
	}
	JOINT Hips_virtual
	{
		OFFSET 0.000000 0.000000 0.000000
		CHANNELS 3 Xrotation Yrotation Zrotation
		JOINT Hips
		{
			OFFSET -0.000000 -0.000000 -0.000000
			CHANNELS 3 Xrotation Yrotation Zrotation
			JOINT Spine
			{
				OFFSET 0.000000 7.722000 1.166200
				CHANNELS 3 Xrotation Yrotation Zrotation
				JOINT Spine1
				{
					OFFSET 0.000000 12.024101 0.248800
					CHANNELS 3 Xrotation Yrotation Zrotation
					JOINT Spine2
					{
						OFFSET 0.000000 11.502998 -0.491200
						CHANNELS 3 Xrotation Yrotation Zrotation
						JOINT Neck_virtual
						{
							OFFSET 0.000000 0.000000 0.000000
							CHANNELS 3 Xrotation Yrotation Zrotation
							JOINT Neck
							{
								OFFSET 0.000000 18.430702 -3.123100
								CHANNELS 3 Xrotation Yrotation Zrotation
								JOINT Head
								{
									OFFSET 0.000000 9.051102 1.034000
									CHANNELS 3 Xrotation Yrotation Zrotation
									End Site
									{
										OFFSET 0 0 0
									}
								}
							}
						}
						JOINT LeftShoulder_virtual
						{
							OFFSET 0.000000 0.000000 0.000000
							CHANNELS 3 Xrotation Yrotation Zrotation
							JOINT LeftShoulder
							{
								OFFSET 6.197800 13.665199 -4.064700
								CHANNELS 3 Xrotation Yrotation Zrotation
								JOINT LeftArm
								{
									OFFSET 7.778100 -0.187103 -1.709300
									CHANNELS 3 Xrotation Yrotation Zrotation
									JOINT LeftForeArm
									{
										OFFSET 22.049376 0.000000 0.000000
										CHANNELS 3 Xrotation Yrotation Zrotation
										JOINT LeftHand
										{
											OFFSET 23.009392 0.000000 0.000000
											CHANNELS 3 Xrotation Yrotation Zrotation
											End Site
											{
												OFFSET 0 0 0
											}
										}
									}
								}
							}
						}
						JOINT RightShoulder_virtual
						{
							OFFSET 0.000000 0.000000 0.000000
							CHANNELS 3 Xrotation Yrotation Zrotation
							JOINT RightShoulder
							{
								OFFSET -6.197800 13.665199 -4.064700
								CHANNELS 3 Xrotation Yrotation Zrotation
								JOINT RightArm
								{
									OFFSET -7.778100 -0.187103 -1.709300
									CHANNELS 3 Xrotation Yrotation Zrotation
									JOINT RightForeArm
									{
										OFFSET -22.049376 0.000000 0.000000
										CHANNELS 3 Xrotation Yrotation Zrotation
										JOINT RightHand
										{
											OFFSET -23.009392 0.000000 0.000000
											CHANNELS 3 Xrotation Yrotation Zrotation
											End Site
											{
												OFFSET 0 0 0
											}
										}
									}
								}
							}
						}
					}
				}
			}
		}
	}
}
MOTION
Frames: 11
Frame Time: 0.03333333
-20.337719 72.322517 -9.472004 0.000000 0.000000 0.000000 35.985121 4.101964 -3.915013 -58.172065 -20.412461 23.398876 30.426976 10.290784 -2.838312 3.388132 7.561117 -26.560511 0.000000 0.000000 0.000000 35.985121 4.101964 -3.915013 -66.937268 -0.986407 -16.414201 51.052696 -6.586047 -1.098990 -16.247038 -3.278999 17.379094 0.000000 0.000000 0.000000 35.985121 4.101964 -3.915013 0.000000 0.000000 0.000000 11.167601 2.028296 0.778689 9.606826 1.909025 0.899771 0.000000 0.000000 0.000000 9.603333 2.011867 0.811203 -0.524616 -2.137134 -0.972093 0.000000 0.000000 0.000000 9.603333 2.011867 0.811203 1.414458 -22.723541 -8.784367 11.762084 -10.125578 -53.585378 0.000007 -69.152237 -0.000011 0.000000 0.000000 0.000000 9.603333 2.011867 0.811203 3.076682 26.719393 7.630342 -0.858332 44.777918 17.984933 -0.000007 15.067925 0.000006 0.000000 0.000000 0.000000 
-19.996407 71.945007 -9.544067 0.000000 0.000000 0.000000 37.448589 3.972904 -3.825509 -61.458548 -19.453224 23.081041 32.578551 10.382309 -2.964506 2.593303 6.236578 -26.134612 0.000000 0.000000 0.000000 37.448589 3.972904 -3.825509 -68.994931 -0.661105 -16.731185 51.778694 -6.353132 -1.404622 -16.338429 -3.371349 17.812408 0.000000 0.000000 0.000000 37.448589 3.972904 -3.825509 0.000002 0.000000 0.000000 11.356986 2.177944 0.796776 9.817438 2.025246 0.983092 0.000000 0.000000 0.000000 9.811145 2.152149 0.886993 -0.715573 -2.246419 -1.135935 0.000000 0.000000 0.000000 9.811145 2.152149 0.886993 1.416215 -22.973075 -8.880206 11.192766 -9.120332 -53.018759 -0.000006 -70.505830 -0.000017 0.000000 0.000000 0.000000 9.811145 2.152149 0.886993 3.187587 27.214298 7.729331 -2.835465 44.048412 16.782876 0.000002 15.523321 0.000003 0.000000 0.000000 0.000000 
-19.616436 71.592056 -9.564968 0.000000 0.000000 0.000000 39.057183 4.086766 -3.610971 -64.825319 -18.422825 22.552050 34.457171 10.433730 -3.134170 1.993863 4.751933 -25.617188 0.000000 0.000000 0.000000 39.057183 4.086766 -3.610971 -71.105486 -0.304265 -17.434275 52.471730 -6.041939 -1.614549 -16.462513 -3.466035 18.232196 0.000000 0.000000 0.000000 39.057183 4.086766 -3.610971 0.000001 0.000000 0.000000 11.446674 2.295185 0.783368 9.969251 2.124027 1.135355 0.000000 0.000000 0.000000 9.956449 2.298935 1.031304 -0.838445 -2.418141 -1.228874 0.000000 0.000000 0.000000 9.956449 2.298935 1.031304 1.450535 -23.720938 -8.828587 11.826661 -9.065753 -52.805603 -0.000013 -71.719910 -0.000014 0.000000 0.000000 0.000000 9.956449 2.298935 1.031304 3.294682 27.536632 7.886912 -5.270283 43.242898 15.996354 -0.000011 15.853552 0.000014 0.000000 0.000000 0.000000 
-19.194992 71.220322 -9.558830 0.000000 0.000000 0.000000 40.686867 4.330243 -3.369321 -68.271689 -17.149181 21.904533 36.308428 10.496741 -3.183834 1.343935 3.174561 -25.036791 0.000000 0.000000 0.000000 40.686867 4.330243 -3.369321 -73.226731 0.038982 -18.346679 53.217962 -5.648963 -1.795680 -16.638771 -3.573521 18.662081 0.000000 0.000000 0.000000 40.686867 4.330243 -3.369321 0.000004 0.000000 0.000000 11.492375 2.358679 0.791943 10.064945 2.170634 1.237803 0.000000 0.000000 0.000000 10.048265 2.372609 1.130297 -0.902486 -2.527068 -1.383376 0.000000 0.000000 0.000000 10.048265 2.372609 1.130297 1.473620 -24.423867 -8.886952 12.773718 -9.396239 -52.694172 0.000029 -72.757477 0.000043 0.000000 0.000000 0.000000 10.048265 2.372609 1.130297 3.339812 27.785951 7.894898 -7.494360 42.669008 15.410845 -0.000001 16.135781 0.000009 0.000000 0.000000 0.000000 
-18.714104 70.837845 -9.544506 0.000000 0.000000 0.000000 42.342948 4.751340 -3.011047 -71.790684 -15.565359 20.987868 38.063500 10.566726 -2.992294 0.714784 1.521720 -24.448930 0.000000 0.000000 0.000000 42.342948 4.751340 -3.011047 -75.327288 0.628138 -19.562224 54.019447 -5.264755 -1.813234 -16.828831 -3.691044 19.116207 0.000000 0.000000 0.000000 42.342948 4.751340 -3.011047 0.000000 0.000000 0.000000 11.547373 2.410712 0.804312 10.145561 2.207581 1.318640 0.000000 0.000000 0.000000 10.126046 2.429381 1.208036 -1.038179 -2.677154 -1.574971 0.000000 0.000000 0.000000 10.126046 2.429381 1.208036 1.497499 -25.154981 -8.949471 13.817591 -10.051098 -52.570388 -0.000011 -73.607029 0.000002 0.000000 0.000000 0.000000 10.126046 2.429381 1.208036 3.280504 27.664715 7.784452 -9.619638 42.447870 14.900326 0.000004 16.326075 -0.000001 0.000000 0.000000 0.000000 
-18.213589 70.422852 -9.521164 0.000000 0.000000 0.000000 43.910248 5.234697 -2.627277 -75.129861 -14.156688 19.956399 39.909287 9.714873 -2.767702 0.025209 1.053974 -23.919485 0.000000 0.000000 0.000000 43.910248 5.234697 -2.627277 -77.152328 1.844099 -21.012011 54.982586 -5.047482 -1.101271 -17.090802 -3.799193 19.443938 0.000000 0.000000 0.000000 43.910248 5.234697 -2.627277 0.000000 0.000000 0.000000 11.613082 2.449574 0.757839 10.265067 2.231856 1.358039 0.000000 0.000000 0.000000 10.241852 2.476437 1.245282 -1.212167 -2.845783 -1.597801 0.000000 0.000000 0.000000 10.241852 2.476437 1.245282 1.557767 -25.527294 -8.496163 14.623300 -11.130549 -52.931688 -0.000001 -74.277570 0.000005 0.000000 0.000000 0.000000 10.241852 2.476437 1.245282 3.249548 27.489652 7.779119 -11.398813 42.415659 13.945892 0.000004 16.488749 -0.000013 0.000000 0.000000 0.000000 
-17.788153 69.961166 -9.463964 0.000000 0.000000 0.000000 45.346743 5.529513 -2.285778 -77.592506 -14.529023 19.341615 42.040033 9.682380 -3.644294 -0.783045 1.208432 -23.545916 0.000000 0.000000 0.000000 45.346743 5.529513 -2.285778 -79.000481 2.783983 -22.156102 56.048225 -4.659109 -0.680619 -17.445790 -3.921754 19.734874 0.000000 0.000000 0.000000 45.346743 5.529513 -2.285778 0.000001 0.000000 0.000000 11.724654 2.494466 0.597137 10.419612 2.265465 1.337531 0.000000 0.000000 0.000000 10.390039 2.546632 1.219551 -1.528120 -2.995715 -1.675189 0.000000 0.000000 0.000000 10.390039 2.546632 1.219551 1.615764 -25.353601 -7.828256 14.967040 -11.945076 -53.301116 0.000034 -74.787757 0.000039 0.000000 0.000000 0.000000 10.390039 2.546632 1.219551 3.298613 27.605144 7.865044 -13.087429 42.442307 12.745410 -0.000007 16.666181 0.000008 0.000000 0.000000 0.000000 
-17.393175 69.414917 -9.383755 0.000000 0.000000 0.000000 46.728469 5.887752 -1.916743 -80.020768 -14.923453 18.702267 44.266890 9.589945 -4.518630 -1.778263 1.400888 -23.251690 0.000000 0.000000 0.000000 46.728469 5.887752 -1.916743 -80.996297 3.575675 -23.141118 57.364150 -4.260560 -0.792427 -17.937031 -4.112567 20.224557 0.000000 0.000000 0.000000 46.728469 5.887752 -1.916743 0.000001 0.000000 0.000000 11.817752 2.592589 0.428996 10.594697 2.359893 1.233383 0.000000 0.000000 0.000000 10.561085 2.654506 1.112511 -1.829374 -3.202500 -1.648500 0.000000 0.000000 0.000000 10.561085 2.654506 1.112511 1.656400 -25.291419 -7.383000 15.650962 -12.698432 -53.329270 -0.000013 -75.154641 -0.000023 0.000000 0.000000 0.000000 10.561085 2.654506 1.112511 3.287744 27.410493 7.928245 -14.244015 42.696315 11.323502 -0.000008 16.900699 -0.000005 0.000000 0.000000 0.000000 
-16.998955 68.809410 -9.255383 0.000000 0.000000 0.000000 47.967339 6.361934 -1.542508 -82.472144 -14.873688 18.037596 46.542640 9.109331 -5.226397 -2.950911 1.621530 -22.889854 0.000000 0.000000 0.000000 47.967339 6.361934 -1.542508 -82.895363 4.357418 -24.141162 58.880076 -3.871196 -1.098025 -18.574771 -4.358317 20.822590 0.000000 0.000000 0.000000 47.967339 6.361934 -1.542508 0.000004 0.000000 0.000000 11.932275 2.669432 0.267941 10.795035 2.436693 1.061352 0.000000 0.000000 0.000000 10.760773 2.723263 0.941221 -2.162296 -3.367359 -1.619734 0.000000 0.000000 0.000000 10.760773 2.723263 0.941221 1.700071 -25.094740 -6.831343 16.047330 -13.664761 -53.668621 -0.000043 -75.388828 -0.000030 0.000000 0.000000 0.000000 10.760773 2.723263 0.941221 3.258685 27.386381 7.855294 -15.066781 42.716078 9.793273 -0.000006 17.097135 0.000019 0.000000 0.000000 0.000000 
-16.576197 68.150742 -9.057316 0.000000 0.000000 0.000000 49.054231 6.906581 -1.062391 -85.024271 -14.035470 17.267924 48.917572 8.113078 -5.420808 -4.272315 1.862022 -22.515333 0.000000 0.000000 0.000000 49.054231 6.906581 -1.062391 -84.461976 5.661132 -25.269617 60.584440 -3.591024 -1.042647 -19.357736 -4.646106 21.442472 0.000000 0.000000 0.000000 49.054231 6.906581 -1.062391 0.000000 0.000000 0.000000 12.068696 2.717561 0.161393 11.047817 2.482336 0.999457 0.000000 0.000000 0.000000 11.010720 2.780279 0.880109 -2.555632 -3.525785 -1.714978 0.000000 0.000000 0.000000 11.010720 2.780279 0.880109 1.723833 -25.231019 -6.660587 16.458744 -14.055765 -53.696676 0.000001 -75.500091 -0.000001 0.000000 0.000000 0.000000 11.010720 2.780279 0.880109 3.176196 27.272973 7.668177 -15.593329 42.844851 8.229513 -0.000014 17.335712 -0.000004 0.000000 0.000000 0.000000 
-16.210583 67.460732 -8.831478 0.000000 0.000000 0.000000 50.084930 7.535641 -0.688442 -87.482217 -13.182718 16.585827 51.199682 7.009499 -5.561093 -5.547619 2.087132 -22.151565 0.000000 0.000000 0.000000 50.084930 7.535641 -0.688442 -86.110217 6.545965 -26.125918 62.367304 -3.394279 -1.675454 -20.224829 -5.010595 22.262213 0.000000 0.000000 0.000000 50.084930 7.535641 -0.688442 0.000001 -0.000001 0.000000 12.201137 2.838095 0.065823 11.358248 2.601989 0.991495 0.000000 0.000000 0.000000 11.314936 2.925649 0.871749 -2.990096 -3.737704 -1.772746 0.000000 0.000000 0.000000 11.314936 2.925649 0.871749 1.775719 -25.335047 -6.187619 16.636082 -14.716457 -53.846438 -0.000030 -75.508841 -0.000012 0.000000 0.000000 0.000000 11.314936 2.925649 0.871749 3.167531 27.281652 7.638715 -15.931034 42.588429 6.111255 0.000006 17.599225 -0.000019 0.000000 0.000000 0.000000 
